# xmcd
#
# Track frame offsets:
#	150
#	13733
#	32012
#	49517
#	66693
#	79453
#	97292
#	116981
#	133341
#	150410
#	163149
#	177757
#	193354
#	206866
#
# Disc length: 2933 seconds
#
# Revision: 0
# Processed by: cddbd v1.5.2PL0 Copyright (c) Steve Scherf et al.
# Submitted via: audiograbber 1.83.01
#
DISCID=d90b730e
DTITLE=Crystal Gage - No Stone Unturned
DYEAR=2005
DGENRE=Country
TTITLE0=That's Where You Lost Me
TTITLE1=No Stone Unturned
TTITLE2=Amazing You
TTITLE3=Dangerous Age
TTITLE4=Anything But Love
TTITLE5=What Elvis Knew
TTITLE6=The World In One Night
TTITLE7=God Loves It When We Dance
TTITLE8=What If We Could
TTITLE9=Cheatin Like You
TTITLE10=Chains
TTITLE11=Greatest Love Story Never Told
TTITLE12=Blue Moon Of Kentucky
TTITLE13=With Bells On
EXTD=
EXTT0=
EXTT1=
EXTT2=
EXTT3=
EXTT4=
EXTT5=
EXTT6=
EXTT7=
EXTT8=
EXTT9=
EXTT10=
EXTT11=
EXTT12=
EXTT13=
PLAYORDER=
